<?xml version="1.0" encoding="UTF-8" standalone="no"?>
<!-- Created with Inkscape (http://www.inkscape.org/) -->
<svg width="236mm"
     height="67.001999mm"
     viewBox="0 0 235.99733 67.001124"
     version="1.1"
     id="svg1"
     xmlns:sodipodi="http://sodipodi.sourceforge.net/DTD/sodipodi-0.dtd"
     xmlns="http://www.w3.org/2000/svg"
     xmlns:svg="http://www.w3.org/2000/svg">
	<defs id="defs1"/>
	<g id="layer1"
	   transform="translate(-64.12415,-21.613284)">
		<g id="g9"
		   transform="matrix(0.88286479,0,0,0.98485598,18.212242,9.2061052)">
			<path d="M 80.10409,29.625039 C 78.33848,29.04368 76.981975,28.753 76.034574,28.753 c -1.528761,0 -2.831437,0.656721 -3.908029,1.970163 -1.055059,1.313442 -1.582589,2.928328 -1.582589,4.844658 0,0.27992 0.01077,0.55984 0.0323,0.83975 h 7.170101 v 6.65333 h -7.04091 v 27.93756 h -8.074438 v -27.93756 l 0.0323,-6.65333 c 0.172255,-4.241774 1.421101,-7.665337 3.746539,-10.270689 2.34697,-2.605352 5.372193,-3.908028 9.075669,-3.908028 1.916333,0 4.252537,0.419871 7.008612,1.259612 z"
			      id="text1"
			      style="stroke:#ffffff;stroke-width:2;fill:#ffffff"/>
			<path d="m 102.1381,29.625044 c -1.76561,-0.58136 -3.122122,-0.87204 -4.069522,-0.87204 -1.528762,0 -2.831438,0.65672 -3.90803,1.97016 -1.055059,1.31344 -1.582589,2.928327 -1.582589,4.844657 0,0.27992 0.01077,0.55984 0.0323,0.83975 h 9.618321 v 6.65333 h -9.48913 -8.074438 l 0.0323,-6.65333 c 0.172255,-4.241777 1.421101,-7.665337 3.746539,-10.270687 2.34697,-2.60535 5.372193,-3.90803 9.075667,-3.90803 1.91634,0 4.252542,0.41987 7.008612,1.25961 z"
			      id="path1"
			      style="stroke:#ffffff;stroke-width:2;fill:#ffffff"/>
			<path d="m 99.790979,63.602276 c 1.765611,0.581359 3.122121,0.872039 4.069521,0.872039 1.52876,0 2.83144,-0.656721 3.90803,-1.970163 1.05506,-1.313442 1.58259,-2.928328 1.58259,-4.844658 0,-0.27992 -0.0108,-0.55984 -0.0323,-0.83975 h -7.1701 v -6.65333 h 7.04091 v -27.93756 h 8.07443 v 27.93756 l -0.0323,6.65333 c -0.17225,4.241774 -1.4211,7.665337 -3.74654,10.270689 -2.34697,2.605352 -5.37219,3.908028 -9.07566,3.908028 -1.91634,0 -4.25254,-0.419871 -7.008617,-1.259612 z"
			      id="path8"
				  style="stroke:#ffffff;stroke-width:2;fill:#ffffff" />
			<path d="m 77.756973,63.602271 c 1.76561,0.58136 3.12212,0.87204 4.06952,0.87204 1.52877,0 2.83144,-0.65672 3.90803,-1.97016 1.05506,-1.31344 1.58259,-2.928327 1.58259,-4.844657 0,-0.27992 -0.0108,-0.55984 -0.0323,-0.83975 h -9.61832 v -6.65333 h 9.48913 8.07444 l -0.0323,6.65333 c -0.17225,4.241777 -1.4211,7.665337 -3.74654,10.270687 -2.34697,2.60535 -5.37219,3.90803 -9.07567,3.90803 -1.91634,0 -4.25254,-0.41987 -7.00861,-1.25961 z"
			      id="path9"
			      style="stroke:#ffffff;stroke-width:2;fill:#ffffff"/>
		</g>
		<path style="stroke:#ffffff;stroke-width:2;fill:#ffffff"
		      d="M 142.47709,65.921906 V 42.822832 h 15.37871 v 3.534623 h -11.25499 v 6.449137 h 10.38684 v 3.472613 h -10.38684 v 9.642701 z m 24.22044,0.310054 q -1.72081,0 -3.05404,-0.744131 -1.31774,-0.759634 -2.06187,-2.201388 -0.74413,-1.457257 -0.74413,-3.550126 V 49.33398 h 3.9532 v 9.782225 q 0,1.782815 0.86815,2.728481 0.88366,0.945667 2.44943,0.945667 1.03869,0 1.84483,-0.418574 0.82164,-0.434076 1.28673,-1.317732 0.48058,-0.899159 0.48058,-2.263399 V 49.33398 h 3.9377 v 16.587926 h -3.84468 l -0.0155,-4.185739 h 0.66661 q -0.77513,2.185886 -2.21689,3.348591 -1.42625,1.147202 -3.55012,1.147202 z m 22.43762,-16.89798 v 3.147055 H 179.08938 V 49.33398 Z m -7.28628,-4.387274 h 3.95319 v 16.246866 q 0,0.883655 0.35657,1.240218 0.37206,0.356563 1.31773,0.356563 0.35656,0 0.83715,-0.0155 0.48058,-0.0155 0.79063,-0.0155 l 0.13953,3.131552 q -0.46508,0.04651 -1.1317,0.06201 -0.66662,0.0155 -1.30223,0.0155 -2.51144,0 -3.73616,-1.054186 -1.22471,-1.069689 -1.22471,-3.209066 z m 17.07367,21.285254 q -1.7208,0 -3.05404,-0.744131 -1.31773,-0.759634 -2.06186,-2.201388 -0.74413,-1.457257 -0.74413,-3.550126 V 49.33398 h 3.95319 v 9.782225 q 0,1.782815 0.86816,2.728481 0.88365,0.945667 2.44943,0.945667 1.03868,0 1.84483,-0.418574 0.82164,-0.434076 1.28672,-1.317732 0.48059,-0.899159 0.48059,-2.263399 V 49.33398 h 3.93769 v 16.587926 h -3.84468 l -0.0155,-4.185739 h 0.66662 q -0.77514,2.185886 -2.21689,3.348591 -1.42625,1.147202 -3.55013,1.147202 z m 24.14293,0.04651 q -3.14706,0 -5.59649,-1.457257 -2.43393,-1.457257 -3.82917,-4.123727 -1.37975,-2.681973 -1.37975,-6.309613 0,-3.658645 1.37975,-6.325115 1.39524,-2.681973 3.84467,-4.13923 2.44944,-1.457257 5.58099,-1.457257 1.95334,0 3.62764,0.573601 1.67429,0.573601 2.97652,1.658793 1.31774,1.069688 2.15488,2.588956 0.85265,1.503765 1.14721,3.410602 h -4.17024 q -0.21704,-1.085192 -0.72863,-1.922339 -0.49609,-0.852651 -1.24022,-1.441755 -0.74413,-0.589104 -1.68979,-0.883656 -0.93017,-0.294551 -2.03086,-0.294551 -2.06187,0 -3.58113,1.007677 -1.50377,1.007678 -2.32541,2.852503 -0.80615,1.844826 -0.80615,4.371771 0,2.511443 0.80615,4.356269 0.82164,1.844825 2.32541,2.852503 1.51926,0.992175 3.58113,0.992175 1.08519,0 2.01535,-0.294552 0.94567,-0.294552 1.6898,-0.868153 0.74413,-0.589104 1.25572,-1.426252 0.51159,-0.837148 0.74413,-1.922339 h 4.15474 q -0.26355,1.844825 -1.1162,3.348591 -0.83715,1.503765 -2.13938,2.588956 -1.30223,1.085192 -2.99203,1.674296 -1.67429,0.589103 -3.65864,0.589103 z m 21.56947,0.0155 q -2.41843,0 -4.26325,-1.085191 -1.82932,-1.085192 -2.85251,-3.023033 -1.00767,-1.953345 -1.00767,-4.526799 0,-2.573454 1.00767,-4.526798 1.02319,-1.953345 2.85251,-3.038536 1.84482,-1.100694 4.26325,-1.100694 2.44943,0 4.26325,1.100694 1.82932,1.085191 2.837,3.038536 1.02318,1.953344 1.02318,4.526798 0,2.573454 -1.02318,4.526799 -1.00768,1.937841 -2.837,3.023033 -1.81382,1.085191 -4.26325,1.085191 z m 0,-3.271077 q 1.30223,0 2.21689,-0.666617 0.93016,-0.666618 1.42625,-1.875831 0.49609,-1.209213 0.49609,-2.821498 0,-1.627787 -0.49609,-2.837 -0.49609,-1.209213 -1.42625,-1.875831 -0.91466,-0.68212 -2.21689,-0.68212 -1.27122,0 -2.20139,0.68212 -0.93016,0.666618 -1.42625,1.875831 -0.49609,1.209213 -0.49609,2.837 0,1.627787 0.49609,2.837001 0.49609,1.19371 1.41075,1.860328 0.93016,0.666617 2.21689,0.666617 z m 12.32984,9.379154 V 49.33398 h 3.89118 v 2.418427 h 0.093 q 0.46508,-0.821645 1.17821,-1.426252 0.71312,-0.620109 1.65879,-0.96117 0.96117,-0.34106 2.12387,-0.34106 2.07737,0 3.67415,1.069689 1.59678,1.069689 2.49594,3.00753 0.89916,1.922339 0.89916,4.526799 0,2.604459 -0.89916,4.542301 -0.88365,1.937842 -2.48044,3.00753 -1.59678,1.069689 -3.72065,1.069689 -1.14721,0 -2.09287,-0.356563 -0.93017,-0.356563 -1.62779,-0.992175 -0.69762,-0.635612 -1.17821,-1.503765 h -0.062 v 9.007088 z m 7.9529,-9.425662 q 1.25572,0 2.15488,-0.635612 0.91466,-0.651115 1.41075,-1.844825 0.51159,-1.193711 0.51159,-2.868006 0,-1.689798 -0.51159,-2.868006 -0.49609,-1.193711 -1.41075,-1.829323 -0.89916,-0.635612 -2.15488,-0.635612 -1.28673,0 -2.2324,0.666618 -0.93016,0.651115 -1.44175,1.844825 -0.51159,1.193711 -0.51159,2.821498 0,1.612284 0.51159,2.821497 0.51159,1.193711 1.45726,1.860328 0.94566,0.666618 2.21689,0.666618 z m 11.88027,9.363651 0.21704,-3.17806 1.59678,0.03101 q 0.62011,0.04651 1.05418,-0.124021 0.44958,-0.155028 0.75964,-0.589104 0.32556,-0.418574 0.54259,-1.147203 l 0.5271,-1.472759 -6.37163,-16.525915 h 4.18574 l 3.03854,8.728039 q 0.49608,1.426252 0.89916,2.852503 0.41857,1.426252 0.82164,2.868006 h -1.06969 q 0.38757,-1.441754 0.80614,-2.868006 0.43408,-1.426251 0.93017,-2.852503 l 3.05404,-8.728039 h 4.12372 l -7.34829,19.176882 q -0.49609,1.30223 -1.22472,2.170383 -0.71312,0.883656 -1.6898,1.317732 -0.97667,0.434077 -2.2634,0.434077 -0.68212,0 -1.34873,-0.03101 -0.65112,-0.031 -1.24022,-0.06201 z"
		      id="text9"
		      aria-label="FutuCopy"/>
	</g>
</svg>
